<svg xmlns="http://www.w3.org/2000/svg" viewBox="0 0 1996.45 258.4"><defs><style>.cls-1{fill:#f2994a;}.cls-2{fill:#424242;}</style></defs><g id="Layer_2" data-name="Layer 2"><g id="Colour"><path class="cls-1" d="M1348,3.32h36.47V122.85c18-19.11,78.71-80.2,116.34-119.53h45.32L1440.89,107.57l110.22,143.62H1506.6l-91.46-119.78-30.66,28v91.78H1348Z"/><path class="cls-2" d="M346.44,197.92C339,229,317.83,258.4,270.07,258.4c-51.26,0-81.88-36.6-81.88-94.09,0-51.81,29.78-96.16,84.19-96.16,54.08,0,72,38.61,74.06,61.48H311.86c-4.22-17.78-15.18-32.7-40.17-32.7-30.36,0-47.56,26.11-47.56,66.18,0,40.85,16.9,66.67,46.59,66.67,21.67,0,34.13-11.74,41-31.86Z"/><path class="cls-2" d="M543.5,162.92c0,52.85-30.56,95.48-86.5,95.48-52.88,0-84.64-40.26-84.64-94.8,0-54.12,31.44-95.45,86.75-95.45C510.15,68.15,543.5,105.91,543.5,162.92Zm-135.19.35c0,38.9,18.94,66.35,50,66.35,31.57,0,49.28-26.25,49.28-66.18,0-40.33-17.68-66.51-50-66.51C425.63,96.93,408.31,122.39,408.31,163.27Z"/><path class="cls-2" d="M583.08,116.26c0-15.7,0-31.82-.36-45.78h34c.88,5.23,1.4,23.07,1.36,28.56,7-14.8,21.84-32.84,56.33-32.84S735,87.78,735,135.57v116.6H700V139.88C700,113.79,690,96,663.37,96c-31.76,0-45.26,23.32-45.26,59v97.17h-35Z"/><path class="cls-2" d="M945.34,162.92c0,52.85-30.56,95.48-86.5,95.48-52.88,0-84.64-40.26-84.64-94.8,0-54.12,31.44-95.45,86.75-95.45C912,68.15,945.34,105.91,945.34,162.92Zm-135.19.35c0,38.9,18.94,66.35,50,66.35,31.57,0,49.28-26.25,49.28-66.18,0-40.33-17.68-66.51-50-66.51C827.47,96.93,810.15,122.39,810.15,163.27Z"/><path class="cls-2" d="M984.76,117.33c0-15.67,0-31.95-.36-46.85h33.7c.52,5.26,1.4,18,1.37,26.74,8.46-15.74,24.07-31,52.39-31,25.8,0,42.83,13.14,49.64,31.6,9.9-16.77,26.77-31.6,57.52-31.6,29.92,0,57.33,17.81,57.33,66.61V252.17H1202V137.06c0-20.18-7.26-41.21-34.13-41.21-28,0-39.94,20.7-39.94,52.08V252.17h-34.35V138.23c0-22.49-6.23-42.21-33.39-42.21-27.48,0-40.68,21.44-40.68,55.41V252.17H984.76Z"/><path class="cls-2" d="M1577.15,3.11h35v40.3h-35Zm0,67.37h35V252.17h-35Z"/><path class="cls-2" d="M1644.9,116.26c0-15.7,0-31.82-.35-45.78h34c.87,5.23,1.39,23.07,1.36,28.56,7-14.8,21.83-32.84,56.32-32.84s60.6,21.58,60.6,69.37v116.6h-35V139.88c0-26.09-10-43.86-36.63-43.86-31.76,0-45.26,23.32-45.26,59v97.17h-35Z"/><path class="cls-2" d="M1996.45,162.92c0,52.85-30.57,95.48-86.5,95.48-52.88,0-84.64-40.26-84.64-94.8,0-54.12,31.44-95.45,86.75-95.45C1963.09,68.15,1996.45,105.91,1996.45,162.92Zm-135.2.35c0,38.9,19,66.35,50,66.35,31.57,0,49.28-26.25,49.28-66.18,0-40.33-17.68-66.51-50-66.51C1878.58,96.93,1861.25,122.39,1861.25,163.27Z"/><path class="cls-2" d="M150.79,142.6h-114v72.21H169.18l-4.74,36.59H0V0H163.69V36.59H36.76V107h114Z"/></g></g></svg>